<mxfile modified="2023-05-29T20:34:00.616Z" host="Electron" agent="Mozilla/5.0 (Macintosh; Intel Mac OS X 10_15_7) AppleWebKit/537.36 (KHTML, like Gecko) draw.io/21.2.8 Chrome/112.0.5615.165 Electron/24.2.0 Safari/537.36" etag="_tdvoBUGEQI57cNiC37u" version="21.2.8" type="device" pages="2">
  <diagram id="Ht1M8jgEwFfnCIfOTk4-" name="Pipeline">
    <mxGraphModel dx="1426" dy="878" grid="1" gridSize="10" guides="1" tooltips="1" connect="1" arrows="1" fold="1" page="1" pageScale="1" pageWidth="827" pageHeight="1169" math="0" shadow="0">
      <root>
        <mxCell id="0" />
        <mxCell id="1" parent="0" />
        <mxCell id="-QjtrjUzRDEMRZ5MF8oH-47" value="CI/CD pipeline" style="text;html=1;resizable=0;points=[];autosize=1;align=left;verticalAlign=top;spacingTop=-4;fontSize=30;fontStyle=1;rounded=1;" parent="1" vertex="1">
          <mxGeometry x="30" y="20" width="220" height="40" as="geometry" />
        </mxCell>
        <mxCell id="SCVMTBWpLvtzJIhz15lM-1" value="" style="line;strokeWidth=2;html=1;fontSize=14;rounded=1;" parent="1" vertex="1">
          <mxGeometry x="30" y="100" width="1060" height="10" as="geometry" />
        </mxCell>
        <mxCell id="7OVz4w7n9kzEPWy-4BBC-3" value="" style="whiteSpace=wrap;html=1;fillColor=#EAEDED;fontSize=22;fontColor=#FFFFFF;strokeColor=none;labelBackgroundColor=none;rounded=1;" parent="1" vertex="1">
          <mxGeometry x="1270" y="110" width="539" height="390" as="geometry" />
        </mxCell>
        <mxCell id="7OVz4w7n9kzEPWy-4BBC-4" value="1" style="whiteSpace=wrap;html=1;fillColor=#007CBD;strokeColor=none;fontColor=#FFFFFF;fontStyle=1;fontSize=22;labelBackgroundColor=none;rounded=1;" parent="1" vertex="1">
          <mxGeometry x="1288" y="162.5" width="40" height="38" as="geometry" />
        </mxCell>
        <mxCell id="7OVz4w7n9kzEPWy-4BBC-5" value="2" style="whiteSpace=wrap;html=1;fillColor=#007CBD;strokeColor=none;fontColor=#FFFFFF;fontStyle=1;fontSize=22;labelBackgroundColor=none;rounded=1;" parent="1" vertex="1">
          <mxGeometry x="1286.5" y="284.5" width="40" height="38" as="geometry" />
        </mxCell>
        <mxCell id="7OVz4w7n9kzEPWy-4BBC-6" value="3" style="whiteSpace=wrap;html=1;fillColor=#007CBD;strokeColor=none;fontColor=#FFFFFF;fontStyle=1;fontSize=22;labelBackgroundColor=none;rounded=1;" parent="1" vertex="1">
          <mxGeometry x="1286.5" y="404.5" width="40" height="38" as="geometry" />
        </mxCell>
        <mxCell id="7OVz4w7n9kzEPWy-4BBC-13" value="&lt;span&gt;The AWS CDK framework for python used as IaC tool&lt;/span&gt;" style="text;html=1;align=left;verticalAlign=top;spacingTop=-4;fontSize=14;labelBackgroundColor=none;whiteSpace=wrap;rounded=1;" parent="1" vertex="1">
          <mxGeometry x="1339.5" y="162" width="449" height="118" as="geometry" />
        </mxCell>
        <mxCell id="7OVz4w7n9kzEPWy-4BBC-14" value="&lt;span&gt;The initial AWS Cloud Formation stack is responsible for creating&lt;br&gt;&lt;/span&gt;self-mutating CI/CD pipeline in AWS CodePipeline.&lt;br&gt;After pipeline is deployed it will periodically check if new code has been&lt;br&gt;submitted to main branch. If so, then CI/CD pipeline will be started." style="text;html=1;align=left;verticalAlign=top;spacingTop=-4;fontSize=14;labelBackgroundColor=none;whiteSpace=wrap;rounded=1;" parent="1" vertex="1">
          <mxGeometry x="1338.5" y="285" width="450" height="115" as="geometry" />
        </mxCell>
        <mxCell id="7OVz4w7n9kzEPWy-4BBC-15" value="The AWS SNS topic is used to send email messages when CI/CD&lt;br&gt;pipeline will fail" style="text;html=1;align=left;verticalAlign=top;spacingTop=-4;fontSize=14;labelBackgroundColor=none;whiteSpace=wrap;rounded=1;" parent="1" vertex="1">
          <mxGeometry x="1338.5" y="403" width="450" height="117" as="geometry" />
        </mxCell>
        <mxCell id="1Oz-pY8P28s77KFNQs1R-18" style="edgeStyle=orthogonalEdgeStyle;orthogonalLoop=1;jettySize=auto;html=1;strokeWidth=2;fillColor=#f8cecc;strokeColor=#b85450;" parent="1" source="UEzPUAAOIrF-is8g5C7q-17" target="1Oz-pY8P28s77KFNQs1R-17" edge="1">
          <mxGeometry relative="1" as="geometry">
            <Array as="points">
              <mxPoint x="848" y="227" />
              <mxPoint x="848" y="158" />
              <mxPoint x="924" y="158" />
            </Array>
          </mxGeometry>
        </mxCell>
        <mxCell id="nE3y3Rz7_iemcY76e0ns-4" style="edgeStyle=orthogonalEdgeStyle;rounded=1;orthogonalLoop=1;jettySize=auto;html=1;strokeWidth=2;fillColor=#f8cecc;strokeColor=#b85450;" parent="1" source="UEzPUAAOIrF-is8g5C7q-17" target="nE3y3Rz7_iemcY76e0ns-3" edge="1">
          <mxGeometry relative="1" as="geometry">
            <Array as="points">
              <mxPoint x="849" y="227" />
              <mxPoint x="849" y="158" />
              <mxPoint x="1087" y="158" />
            </Array>
          </mxGeometry>
        </mxCell>
        <mxCell id="UEzPUAAOIrF-is8g5C7q-17" value="Amazon SNS&lt;br&gt;DevOps Alerts" style="outlineConnect=0;fontColor=#232F3E;gradientColor=#F34482;gradientDirection=north;fillColor=#BC1356;strokeColor=#ffffff;dashed=0;verticalLabelPosition=bottom;verticalAlign=top;align=center;html=1;fontSize=12;fontStyle=0;aspect=fixed;shape=mxgraph.aws4.resourceIcon;resIcon=mxgraph.aws4.sns;rounded=1;" parent="1" vertex="1">
          <mxGeometry x="718" y="188" width="78" height="78" as="geometry" />
        </mxCell>
        <mxCell id="1Oz-pY8P28s77KFNQs1R-8" style="edgeStyle=orthogonalEdgeStyle;orthogonalLoop=1;jettySize=auto;html=1;entryX=0;entryY=0.5;entryDx=0;entryDy=0;entryPerimeter=0;strokeWidth=2;" parent="1" source="vGNN6dF9KQB826ARlyIF-1" target="1Oz-pY8P28s77KFNQs1R-1" edge="1">
          <mxGeometry relative="1" as="geometry" />
        </mxCell>
        <mxCell id="vGNN6dF9KQB826ARlyIF-1" value="" style="dashed=0;outlineConnect=0;html=1;align=center;labelPosition=center;verticalLabelPosition=bottom;verticalAlign=top;shape=mxgraph.weblogos.github;rounded=1;" parent="1" vertex="1">
          <mxGeometry x="48" y="346" width="75" height="75" as="geometry" />
        </mxCell>
        <mxCell id="1Oz-pY8P28s77KFNQs1R-9" style="edgeStyle=orthogonalEdgeStyle;orthogonalLoop=1;jettySize=auto;html=1;strokeWidth=2;" parent="1" source="1Oz-pY8P28s77KFNQs1R-1" target="1Oz-pY8P28s77KFNQs1R-2" edge="1">
          <mxGeometry relative="1" as="geometry" />
        </mxCell>
        <mxCell id="1Oz-pY8P28s77KFNQs1R-1" value="AWS CDK&lt;br&gt;Pipelines" style="points=[[0,0,0],[0.25,0,0],[0.5,0,0],[0.75,0,0],[1,0,0],[0,1,0],[0.25,1,0],[0.5,1,0],[0.75,1,0],[1,1,0],[0,0.25,0],[0,0.5,0],[0,0.75,0],[1,0.25,0],[1,0.5,0],[1,0.75,0]];outlineConnect=0;fontColor=#232F3E;gradientColor=#4D72F3;gradientDirection=north;fillColor=#3334B9;strokeColor=#ffffff;dashed=0;verticalLabelPosition=bottom;verticalAlign=top;align=center;html=1;fontSize=12;fontStyle=0;aspect=fixed;shape=mxgraph.aws4.resourceIcon;resIcon=mxgraph.aws4.cloud_development_kit;rounded=1;" parent="1" vertex="1">
          <mxGeometry x="208" y="344.5" width="78" height="78" as="geometry" />
        </mxCell>
        <mxCell id="1Oz-pY8P28s77KFNQs1R-10" style="edgeStyle=orthogonalEdgeStyle;orthogonalLoop=1;jettySize=auto;html=1;strokeWidth=2;" parent="1" source="1Oz-pY8P28s77KFNQs1R-2" target="1Oz-pY8P28s77KFNQs1R-3" edge="1">
          <mxGeometry relative="1" as="geometry" />
        </mxCell>
        <mxCell id="1Oz-pY8P28s77KFNQs1R-2" value="CloudFormation" style="points=[[0,0,0],[0.25,0,0],[0.5,0,0],[0.75,0,0],[1,0,0],[0,1,0],[0.25,1,0],[0.5,1,0],[0.75,1,0],[1,1,0],[0,0.25,0],[0,0.5,0],[0,0.75,0],[1,0.25,0],[1,0.5,0],[1,0.75,0]];points=[[0,0,0],[0.25,0,0],[0.5,0,0],[0.75,0,0],[1,0,0],[0,1,0],[0.25,1,0],[0.5,1,0],[0.75,1,0],[1,1,0],[0,0.25,0],[0,0.5,0],[0,0.75,0],[1,0.25,0],[1,0.5,0],[1,0.75,0]];outlineConnect=0;fontColor=#232F3E;gradientColor=#F34482;gradientDirection=north;fillColor=#BC1356;strokeColor=#ffffff;dashed=0;verticalLabelPosition=bottom;verticalAlign=top;align=center;html=1;fontSize=12;fontStyle=0;aspect=fixed;shape=mxgraph.aws4.resourceIcon;resIcon=mxgraph.aws4.cloudformation;rounded=1;" parent="1" vertex="1">
          <mxGeometry x="382.5" y="344.5" width="78" height="78" as="geometry" />
        </mxCell>
        <mxCell id="1Oz-pY8P28s77KFNQs1R-11" style="edgeStyle=orthogonalEdgeStyle;orthogonalLoop=1;jettySize=auto;html=1;strokeWidth=2;" parent="1" source="1Oz-pY8P28s77KFNQs1R-3" target="1Oz-pY8P28s77KFNQs1R-4" edge="1">
          <mxGeometry relative="1" as="geometry" />
        </mxCell>
        <mxCell id="1Oz-pY8P28s77KFNQs1R-16" style="edgeStyle=orthogonalEdgeStyle;orthogonalLoop=1;jettySize=auto;html=1;strokeWidth=2;fillColor=#f8cecc;strokeColor=#b85450;" parent="1" source="1Oz-pY8P28s77KFNQs1R-3" target="UEzPUAAOIrF-is8g5C7q-17" edge="1">
          <mxGeometry relative="1" as="geometry">
            <Array as="points">
              <mxPoint x="688" y="368" />
              <mxPoint x="688" y="227" />
            </Array>
          </mxGeometry>
        </mxCell>
        <mxCell id="nE3y3Rz7_iemcY76e0ns-11" style="edgeStyle=orthogonalEdgeStyle;rounded=1;orthogonalLoop=1;jettySize=auto;html=1;strokeWidth=2;" parent="1" source="1Oz-pY8P28s77KFNQs1R-3" target="nE3y3Rz7_iemcY76e0ns-8" edge="1">
          <mxGeometry relative="1" as="geometry">
            <Array as="points">
              <mxPoint x="668" y="388" />
              <mxPoint x="668" y="539" />
            </Array>
          </mxGeometry>
        </mxCell>
        <mxCell id="1Oz-pY8P28s77KFNQs1R-3" value="CI/CD&lt;br&gt;Stack" style="outlineConnect=0;fontColor=#232F3E;gradientColor=none;fillColor=#BC1356;strokeColor=none;dashed=0;verticalLabelPosition=bottom;verticalAlign=top;align=center;html=1;fontSize=12;fontStyle=0;aspect=fixed;pointerEvents=1;shape=mxgraph.aws4.stack;rounded=1;" parent="1" vertex="1">
          <mxGeometry x="548" y="345" width="78" height="76" as="geometry" />
        </mxCell>
        <mxCell id="1Oz-pY8P28s77KFNQs1R-21" style="edgeStyle=orthogonalEdgeStyle;orthogonalLoop=1;jettySize=auto;html=1;strokeWidth=2;fillColor=#d5e8d4;strokeColor=#82b366;" parent="1" source="1Oz-pY8P28s77KFNQs1R-4" target="vGNN6dF9KQB826ARlyIF-1" edge="1">
          <mxGeometry relative="1" as="geometry">
            <Array as="points">
              <mxPoint x="818" y="408" />
              <mxPoint x="818" y="488" />
              <mxPoint x="86" y="488" />
            </Array>
          </mxGeometry>
        </mxCell>
        <mxCell id="1Oz-pY8P28s77KFNQs1R-4" value="CodePipeline" style="points=[[0,0,0],[0.25,0,0],[0.5,0,0],[0.75,0,0],[1,0,0],[0,1,0],[0.25,1,0],[0.5,1,0],[0.75,1,0],[1,1,0],[0,0.25,0],[0,0.5,0],[0,0.75,0],[1,0.25,0],[1,0.5,0],[1,0.75,0]];outlineConnect=0;fontColor=#232F3E;gradientColor=#4D72F3;gradientDirection=north;fillColor=#3334B9;strokeColor=#ffffff;dashed=0;verticalLabelPosition=bottom;verticalAlign=top;align=center;html=1;fontSize=12;fontStyle=0;aspect=fixed;shape=mxgraph.aws4.resourceIcon;resIcon=mxgraph.aws4.codepipeline;rounded=1;" parent="1" vertex="1">
          <mxGeometry x="717" y="344" width="78" height="78" as="geometry" />
        </mxCell>
        <mxCell id="1Oz-pY8P28s77KFNQs1R-17" value="Email recipient&lt;br&gt;pipeline issue" style="outlineConnect=0;fontColor=#232F3E;gradientColor=none;fillColor=#3334B9;strokeColor=none;dashed=0;verticalLabelPosition=bottom;verticalAlign=top;align=center;html=1;fontSize=12;fontStyle=0;aspect=fixed;pointerEvents=1;shape=mxgraph.aws4.email;rounded=1;" parent="1" vertex="1">
          <mxGeometry x="885" y="192.5" width="78" height="69" as="geometry" />
        </mxCell>
        <mxCell id="1Oz-pY8P28s77KFNQs1R-40" value="1" style="whiteSpace=wrap;html=1;fillColor=#007CBD;strokeColor=none;fontColor=#FFFFFF;fontStyle=1;fontSize=22;labelBackgroundColor=none;rounded=1;" parent="1" vertex="1">
          <mxGeometry x="286" y="307" width="40" height="38" as="geometry" />
        </mxCell>
        <mxCell id="1Oz-pY8P28s77KFNQs1R-47" value="" style="rounded=1;whiteSpace=wrap;html=1;fillColor=#d5e8d4;strokeColor=#82b366;" parent="1" vertex="1">
          <mxGeometry x="30" y="568" width="352.5" height="60" as="geometry" />
        </mxCell>
        <mxCell id="1Oz-pY8P28s77KFNQs1R-41" value="2" style="whiteSpace=wrap;html=1;fillColor=#007CBD;strokeColor=none;fontColor=#FFFFFF;fontStyle=1;fontSize=22;labelBackgroundColor=none;rounded=1;" parent="1" vertex="1">
          <mxGeometry x="626" y="308" width="40" height="38" as="geometry" />
        </mxCell>
        <mxCell id="1Oz-pY8P28s77KFNQs1R-49" value="" style="endArrow=none;html=1;strokeWidth=2;fillColor=#dae8fc;strokeColor=#007FFF;" parent="1" edge="1">
          <mxGeometry width="50" height="50" relative="1" as="geometry">
            <mxPoint x="38" y="586" as="sourcePoint" />
            <mxPoint x="188" y="586" as="targetPoint" />
          </mxGeometry>
        </mxCell>
        <mxCell id="1Oz-pY8P28s77KFNQs1R-50" value="Existing objects imported to CDK" style="edgeLabel;html=1;align=center;verticalAlign=middle;resizable=0;points=[];labelBackgroundColor=none;" parent="1Oz-pY8P28s77KFNQs1R-49" vertex="1" connectable="0">
          <mxGeometry x="0.3029" y="1" relative="1" as="geometry">
            <mxPoint x="142" y="1" as="offset" />
          </mxGeometry>
        </mxCell>
        <mxCell id="1Oz-pY8P28s77KFNQs1R-51" value="Legend" style="text;html=1;strokeColor=none;fillColor=none;align=center;verticalAlign=middle;whiteSpace=wrap;rounded=0;labelBackgroundColor=none;" parent="1" vertex="1">
          <mxGeometry x="30" y="542.5" width="40" height="20" as="geometry" />
        </mxCell>
        <mxCell id="nE3y3Rz7_iemcY76e0ns-2" value="3" style="whiteSpace=wrap;html=1;fillColor=#007CBD;strokeColor=none;fontColor=#FFFFFF;fontStyle=1;fontSize=22;labelBackgroundColor=none;rounded=1;" parent="1" vertex="1">
          <mxGeometry x="797" y="150" width="40" height="38" as="geometry" />
        </mxCell>
        <mxCell id="nE3y3Rz7_iemcY76e0ns-3" value="AWS ChatBot" style="points=[[0,0,0],[0.25,0,0],[0.5,0,0],[0.75,0,0],[1,0,0],[0,1,0],[0.25,1,0],[0.5,1,0],[0.75,1,0],[1,1,0],[0,0.25,0],[0,0.5,0],[0,0.75,0],[1,0.25,0],[1,0.5,0],[1,0.75,0]];points=[[0,0,0],[0.25,0,0],[0.5,0,0],[0.75,0,0],[1,0,0],[0,1,0],[0.25,1,0],[0.5,1,0],[0.75,1,0],[1,1,0],[0,0.25,0],[0,0.5,0],[0,0.75,0],[1,0.25,0],[1,0.5,0],[1,0.75,0]];outlineConnect=0;fontColor=#232F3E;gradientColor=#F34482;gradientDirection=north;fillColor=#BC1356;strokeColor=#ffffff;dashed=0;verticalLabelPosition=bottom;verticalAlign=top;align=center;html=1;fontSize=12;fontStyle=0;aspect=fixed;shape=mxgraph.aws4.resourceIcon;resIcon=mxgraph.aws4.chatbot;" parent="1" vertex="1">
          <mxGeometry x="1048" y="198" width="78" height="78" as="geometry" />
        </mxCell>
        <mxCell id="nE3y3Rz7_iemcY76e0ns-5" value="" style="endArrow=none;html=1;strokeWidth=2;fillColor=#f8cecc;strokeColor=#b85450;" parent="1" edge="1">
          <mxGeometry width="50" height="50" relative="1" as="geometry">
            <mxPoint x="38" y="610.5" as="sourcePoint" />
            <mxPoint x="188" y="611" as="targetPoint" />
          </mxGeometry>
        </mxCell>
        <mxCell id="nE3y3Rz7_iemcY76e0ns-6" value="Waiting for CDK implementation" style="edgeLabel;html=1;align=center;verticalAlign=middle;resizable=0;points=[];labelBackgroundColor=none;" parent="1" vertex="1" connectable="0">
          <mxGeometry x="278" y="610.5" as="geometry" />
        </mxCell>
        <mxCell id="nE3y3Rz7_iemcY76e0ns-8" value="&lt;font color=&quot;#000000&quot;&gt;Parameter Store&lt;br&gt;configuration values&lt;/font&gt;" style="outlineConnect=0;fontColor=#232F3E;gradientColor=none;fillColor=#BC1356;strokeColor=none;dashed=0;verticalLabelPosition=bottom;verticalAlign=top;align=center;html=1;fontSize=12;fontStyle=0;aspect=fixed;pointerEvents=1;shape=mxgraph.aws4.parameter_store;rounded=1;" parent="1" vertex="1">
          <mxGeometry x="719.5" y="500" width="75" height="78" as="geometry" />
        </mxCell>
      </root>
    </mxGraphModel>
  </diagram>
  <diagram id="x_2uRzbN9rN5pu0GddbS" name="Plugins: pipeline trigger">
    <mxGraphModel dx="1426" dy="878" grid="1" gridSize="10" guides="1" tooltips="1" connect="1" arrows="1" fold="1" page="1" pageScale="1" pageWidth="827" pageHeight="1169" math="0" shadow="0">
      <root>
        <mxCell id="0" />
        <mxCell id="1" parent="0" />
        <mxCell id="MTSceiyK_aBg8VxJ-9Zl-7" style="edgeStyle=orthogonalEdgeStyle;rounded=1;orthogonalLoop=1;jettySize=auto;html=1;strokeWidth=2;" parent="1" source="83LvEBSTGbNbLr3HH4UA-1" target="MTSceiyK_aBg8VxJ-9Zl-4" edge="1">
          <mxGeometry relative="1" as="geometry">
            <Array as="points">
              <mxPoint x="160" y="199" />
              <mxPoint x="160" y="199" />
            </Array>
          </mxGeometry>
        </mxCell>
        <mxCell id="MTSceiyK_aBg8VxJ-9Zl-12" value="Pipeline status" style="edgeLabel;html=1;align=center;verticalAlign=middle;resizable=0;points=[];" parent="MTSceiyK_aBg8VxJ-9Zl-7" vertex="1" connectable="0">
          <mxGeometry x="-0.439" y="2" relative="1" as="geometry">
            <mxPoint x="37" y="13" as="offset" />
          </mxGeometry>
        </mxCell>
        <mxCell id="83LvEBSTGbNbLr3HH4UA-1" value="Upstream&lt;br&gt;CI/CD pipeline" style="points=[[0,0,0],[0.25,0,0],[0.5,0,0],[0.75,0,0],[1,0,0],[0,1,0],[0.25,1,0],[0.5,1,0],[0.75,1,0],[1,1,0],[0,0.25,0],[0,0.5,0],[0,0.75,0],[1,0.25,0],[1,0.5,0],[1,0.75,0]];outlineConnect=0;fontColor=#232F3E;gradientColor=#4D72F3;gradientDirection=north;fillColor=#3334B9;strokeColor=#ffffff;dashed=0;verticalLabelPosition=bottom;verticalAlign=top;align=center;html=1;fontSize=12;fontStyle=0;aspect=fixed;shape=mxgraph.aws4.resourceIcon;resIcon=mxgraph.aws4.codepipeline;rounded=1;" parent="1" vertex="1">
          <mxGeometry x="40" y="160" width="78" height="78" as="geometry" />
        </mxCell>
        <mxCell id="MTSceiyK_aBg8VxJ-9Zl-1" value="CI/CD pipeline trigger" style="text;html=1;resizable=0;points=[];autosize=1;align=left;verticalAlign=top;spacingTop=-4;fontSize=30;fontStyle=1;rounded=1;" parent="1" vertex="1">
          <mxGeometry x="20" y="10" width="330" height="40" as="geometry" />
        </mxCell>
        <mxCell id="MTSceiyK_aBg8VxJ-9Zl-3" value="" style="line;strokeWidth=2;html=1;fontSize=14;rounded=1;" parent="1" vertex="1">
          <mxGeometry x="20" y="90" width="780" height="10" as="geometry" />
        </mxCell>
        <mxCell id="MTSceiyK_aBg8VxJ-9Zl-10" style="edgeStyle=orthogonalEdgeStyle;rounded=1;orthogonalLoop=1;jettySize=auto;html=1;strokeWidth=2;" parent="1" source="MTSceiyK_aBg8VxJ-9Zl-4" target="MTSceiyK_aBg8VxJ-9Zl-5" edge="1">
          <mxGeometry relative="1" as="geometry" />
        </mxCell>
        <mxCell id="MTSceiyK_aBg8VxJ-9Zl-13" value="Status SUCCEEDED" style="edgeLabel;html=1;align=center;verticalAlign=middle;resizable=0;points=[];" parent="MTSceiyK_aBg8VxJ-9Zl-10" vertex="1" connectable="0">
          <mxGeometry x="-0.0988" y="-1" relative="1" as="geometry">
            <mxPoint y="10" as="offset" />
          </mxGeometry>
        </mxCell>
        <mxCell id="MTSceiyK_aBg8VxJ-9Zl-4" value="SNS Topic&lt;br&gt;pipeline status" style="sketch=0;points=[[0,0,0],[0.25,0,0],[0.5,0,0],[0.75,0,0],[1,0,0],[0,1,0],[0.25,1,0],[0.5,1,0],[0.75,1,0],[1,1,0],[0,0.25,0],[0,0.5,0],[0,0.75,0],[1,0.25,0],[1,0.5,0],[1,0.75,0]];outlineConnect=0;fontColor=#232F3E;gradientColor=#FF4F8B;gradientDirection=north;fillColor=#BC1356;strokeColor=#ffffff;dashed=0;verticalLabelPosition=bottom;verticalAlign=top;align=center;html=1;fontSize=12;fontStyle=0;aspect=fixed;shape=mxgraph.aws4.resourceIcon;resIcon=mxgraph.aws4.sns;" parent="1" vertex="1">
          <mxGeometry x="240" y="160" width="78" height="78" as="geometry" />
        </mxCell>
        <mxCell id="MTSceiyK_aBg8VxJ-9Zl-11" style="edgeStyle=orthogonalEdgeStyle;rounded=1;orthogonalLoop=1;jettySize=auto;html=1;strokeWidth=2;" parent="1" source="MTSceiyK_aBg8VxJ-9Zl-5" target="MTSceiyK_aBg8VxJ-9Zl-6" edge="1">
          <mxGeometry relative="1" as="geometry" />
        </mxCell>
        <mxCell id="MTSceiyK_aBg8VxJ-9Zl-14" value="Start Pipeline" style="edgeLabel;html=1;align=center;verticalAlign=middle;resizable=0;points=[];" parent="MTSceiyK_aBg8VxJ-9Zl-11" vertex="1" connectable="0">
          <mxGeometry x="-0.1728" y="-2" relative="1" as="geometry">
            <mxPoint x="5" y="9" as="offset" />
          </mxGeometry>
        </mxCell>
        <mxCell id="MTSceiyK_aBg8VxJ-9Zl-5" value="Lambda function&lt;br&gt;pipeline trigger" style="sketch=0;points=[[0,0,0],[0.25,0,0],[0.5,0,0],[0.75,0,0],[1,0,0],[0,1,0],[0.25,1,0],[0.5,1,0],[0.75,1,0],[1,1,0],[0,0.25,0],[0,0.5,0],[0,0.75,0],[1,0.25,0],[1,0.5,0],[1,0.75,0]];outlineConnect=0;fontColor=#232F3E;gradientColor=#F78E04;gradientDirection=north;fillColor=#D05C17;strokeColor=#ffffff;dashed=0;verticalLabelPosition=bottom;verticalAlign=top;align=center;html=1;fontSize=12;fontStyle=0;aspect=fixed;shape=mxgraph.aws4.resourceIcon;resIcon=mxgraph.aws4.lambda;" parent="1" vertex="1">
          <mxGeometry x="440" y="160" width="78" height="78" as="geometry" />
        </mxCell>
        <mxCell id="MTSceiyK_aBg8VxJ-9Zl-6" value="Core&lt;br&gt;CI/CD pipeline" style="points=[[0,0,0],[0.25,0,0],[0.5,0,0],[0.75,0,0],[1,0,0],[0,1,0],[0.25,1,0],[0.5,1,0],[0.75,1,0],[1,1,0],[0,0.25,0],[0,0.5,0],[0,0.75,0],[1,0.25,0],[1,0.5,0],[1,0.75,0]];outlineConnect=0;fontColor=#232F3E;gradientColor=#4D72F3;gradientDirection=north;fillColor=#3334B9;strokeColor=#ffffff;dashed=0;verticalLabelPosition=bottom;verticalAlign=top;align=center;html=1;fontSize=12;fontStyle=0;aspect=fixed;shape=mxgraph.aws4.resourceIcon;resIcon=mxgraph.aws4.codepipeline;rounded=1;" parent="1" vertex="1">
          <mxGeometry x="640" y="160" width="78" height="78" as="geometry" />
        </mxCell>
      </root>
    </mxGraphModel>
  </diagram>
</mxfile>
